<?xml version="1.0" encoding="UTF-8"?>
<svg version="1.1" xmlns="http://www.w3.org/2000/svg" width="534" height="467">
<path d="M0 0 C19.8 0 39.6 0 60 0 C60.66 6.27 61.32 12.54 62 19 C62.64299635 22.45098789 63.28348786 25.70003862 64.1875 29.0625 C64.39963135 29.87702637 64.6117627 30.69155273 64.83032227 31.53076172 C68.2115416 44.00284758 72.64211437 56.29931861 80 67 C80.88558594 68.30904297 80.88558594 68.30904297 81.7890625 69.64453125 C84.23425632 73.1978661 86.71681549 76.65146521 89.4375 80 C91 82 91 82 91 84 C91.66 84 92.32 84 93 84 C93 84.66 93 85.32 93 86 C93.66 86 94.32 86 95 86 C96.41015625 87.50390625 96.41015625 87.50390625 98.0625 89.5625 C101.90559576 94.0955879 106.24935875 97.47478918 111 101 C111.74507813 101.62261719 112.49015625 102.24523437 113.2578125 102.88671875 C116.75919398 105.58507684 120.44703938 107.8177436 124.25 110.0625 C124.96285156 110.49626953 125.67570312 110.93003906 126.41015625 111.37695312 C130.8150614 113.98418077 135.09261213 115.86641256 139.98242188 117.3762207 C143.22558722 118.37891764 146.31779407 119.7241258 149.4453125 121.03515625 C155.51033478 123.32576864 161.40175015 124.47960913 167.8125 125.125 C168.63999756 125.2084668 169.46749512 125.29193359 170.32006836 125.37792969 C178.8986189 126.17638914 187.39400912 126.37277489 196 126 C197.08764648 125.95431885 197.08764648 125.95431885 198.19726562 125.90771484 C211.20360543 125.22728522 222.87517812 121.59919353 235 117 C236.3312793 116.49545288 236.3312793 116.49545288 237.68945312 115.98071289 C243.73151135 113.63269082 248.73642673 110.78514152 254 107 C255.81038913 105.70537641 257.62289511 104.41370792 259.4375 103.125 C260.26121094 102.52945313 261.08492188 101.93390625 261.93359375 101.3203125 C264 100 264 100 266 100 C266 99.34 266 98.68 266 98 C266.66 98 267.32 98 268 98 C268 97.34 268 96.68 268 96 C271.19026533 93.67980703 274.41726669 91.65356922 278 90 C279.37562854 91.28965176 280.70766393 92.62689293 282 94 C282 94.66 282 95.32 282 96 C282.60070312 96.26167969 283.20140625 96.52335937 283.8203125 96.79296875 C286.13404277 98.07422799 287.2545833 99.24807082 288.875 101.3125 C290.8189149 103.68348711 292.72542479 105.716247 295.125 107.625 C297.88282457 109.9032029 299.77692505 112.22115631 302 115 C303.98260426 116.68732277 305.9832342 118.35366057 308 120 C311.63593514 123.45857245 314.83804302 127.11531 318 131 C315.44059481 139.06212634 307.15085061 144.8882609 300 149 C299.34 149 298.68 149 298 149 C298 149.66 298 150.32 298 151 C297.34 151 296.68 151 296 151 C296 151.66 296 152.32 296 153 C293.83984375 154.5859375 293.83984375 154.5859375 290.9375 156.375 C289.92171875 157.00148438 288.9059375 157.62796875 287.859375 158.2734375 C268.44128489 169.99856841 248.36599316 177.82543279 226.3359375 183.16796875 C223.03223612 183.94634019 223.03223612 183.94634019 220 185 C189.60105044 189.13160326 160.31241879 187.91088297 131 179 C129.9483667 178.69255859 129.9483667 178.69255859 128.87548828 178.37890625 C111.14222145 173.18562437 95.05522955 164.61678634 80 154 C79.25282715 153.47325684 78.5056543 152.94651367 77.73583984 152.40380859 C77.00187988 151.87223145 76.26791992 151.3406543 75.51171875 150.79296875 C74.83971436 150.30723389 74.16770996 149.82149902 73.4753418 149.32104492 C72.74504761 148.66712769 72.74504761 148.66712769 72 148 C72 147.34 72 146.68 72 146 C71.01 146 70.02 146 69 146 C69 145.34 69 144.68 69 144 C68.4225 143.731875 67.845 143.46375 67.25 143.1875 C65 142 65 142 61 139 C60.67 152.86 60.34 166.72 60 181 C52.33162433 181.02094549 44.66335169 181.04098358 36.99497223 181.05175018 C33.42428875 181.0570399 29.85362885 181.06411339 26.28295898 181.07543945 C22.18993903 181.08834176 18.0969442 181.09322906 14.00390625 181.09765625 C12.07581871 181.10539818 12.07581871 181.10539818 10.10877991 181.11329651 C8.33705666 181.11340981 8.33705666 181.11340981 6.52954102 181.11352539 C5.48363297 181.115746 4.43772491 181.11796661 3.36012268 181.12025452 C1 181 1 181 0 180 C-0.0976134 177.67232986 -0.12997765 175.37437981 -0.12025452 173.04624939 C-0.12110894 172.31035554 -0.12196337 171.57446169 -0.12284368 170.81626803 C-0.12450067 168.33183354 -0.11897356 165.84746545 -0.11352539 163.36303711 C-0.11324354 161.58951316 -0.11340121 159.81598909 -0.1139679 158.04246521 C-0.11425595 153.21208983 -0.1083579 148.38173906 -0.10139394 143.55136943 C-0.09516176 138.50914683 -0.09455671 133.46692373 -0.09336853 128.42469788 C-0.09025481 118.86949773 -0.08204088 109.31430897 -0.07201904 99.75911385 C-0.06085916 88.88384567 -0.05534777 78.00857695 -0.05032361 67.13330448 C-0.03985829 44.75552855 -0.02151231 22.37776823 0 0 Z " fill="#2EB6FC" transform="translate(74,239)"/>
<path d="M0 0 C2.51452696 1.24139895 5.04795717 2.27744196 7.6640625 3.28515625 C11.87476127 4.91488958 15.6221063 6.87646552 19.4765625 9.22265625 C19.4765625 9.88265625 19.4765625 10.54265625 19.4765625 11.22265625 C20.6521875 11.43921875 20.6521875 11.43921875 21.8515625 11.66015625 C24.4765625 12.22265625 24.4765625 12.22265625 26.4765625 13.22265625 C26.4765625 13.88265625 26.4765625 14.54265625 26.4765625 15.22265625 C27.188125 15.47273438 27.8996875 15.7228125 28.6328125 15.98046875 C31.77464492 17.35286258 34.22834311 19.05193114 36.9765625 21.09765625 C38.35328125 22.11472656 38.35328125 22.11472656 39.7578125 23.15234375 C40.655 23.83554688 41.5521875 24.51875 42.4765625 25.22265625 C43.415 25.92648438 44.3534375 26.6303125 45.3203125 27.35546875 C46.031875 27.97164062 46.7434375 28.5878125 47.4765625 29.22265625 C47.4765625 29.88265625 47.4765625 30.54265625 47.4765625 31.22265625 C48.7965625 31.88265625 50.1165625 32.54265625 51.4765625 33.22265625 C51.8065625 19.36265625 52.1365625 5.50265625 52.4765625 -8.77734375 C72.2765625 -8.77734375 92.0765625 -8.77734375 112.4765625 -8.77734375 C112.50412016 7.16017045 112.52761113 23.09763003 112.5390625 39.03515625 C112.53991852 40.21806622 112.54077454 41.40097618 112.54165649 42.6197319 C112.56245705 75.17831814 112.45934614 107.7298809 111.9765625 140.28515625 C111.95862577 141.49558783 111.95862577 141.49558783 111.94032669 142.73047256 C111.79847454 152.22811675 111.63995731 161.72533272 111.4765625 171.22265625 C92.0065625 171.22265625 72.5365625 171.22265625 52.4765625 171.22265625 C51.1565625 162.64265625 49.8365625 154.06265625 48.4765625 145.22265625 C45.13905949 131.87264422 41.52424438 120.03177469 34.4765625 108.22265625 C34.08855469 107.55105469 33.70054687 106.87945312 33.30078125 106.1875 C22.39790463 87.94110511 7.26405761 72.31223696 -11.5234375 62.22265625 C-12.21953125 61.82433594 -12.915625 61.42601562 -13.6328125 61.015625 C-14.38046875 60.58894531 -15.128125 60.16226563 -15.8984375 59.72265625 C-16.56617188 59.34109375 -17.23390625 58.95953125 -17.921875 58.56640625 C-48.10787488 42.97483875 -82.13651595 41.40794113 -114.28686523 51.41015625 C-124.53539995 54.74150839 -133.44864195 59.36962993 -142.5625 65.12109375 C-144.5234375 66.22265625 -144.5234375 66.22265625 -146.5234375 66.22265625 C-146.5234375 66.88265625 -146.5234375 67.54265625 -146.5234375 68.22265625 C-150.90805288 71.22265625 -150.90805288 71.22265625 -153.5234375 71.22265625 C-153.5234375 71.88265625 -153.5234375 72.54265625 -153.5234375 73.22265625 C-155.1328125 74.9140625 -155.1328125 74.9140625 -157.2734375 76.78515625 C-157.96953125 77.40519531 -158.665625 78.02523437 -159.3828125 78.6640625 C-161.62740629 80.29835615 -162.77207736 80.9972923 -165.5234375 81.22265625 C-167.56097412 79.78639221 -167.56097412 79.78639221 -169.74121094 77.57250977 C-170.56175964 76.7515834 -171.38230835 75.93065704 -172.22772217 75.08485413 C-173.10390198 74.18286789 -173.98008179 73.28088165 -174.8828125 72.3515625 C-175.78719055 71.44010971 -176.6915686 70.52865692 -177.62335205 69.58958435 C-180.02816114 67.16567991 -182.41758094 64.72713761 -184.80413818 62.28527832 C-187.24184558 59.79643304 -189.69376031 57.32167374 -192.14453125 54.84570312 C-196.95152843 49.98507382 -201.74242022 45.10883836 -206.5234375 40.22265625 C-205.8634375 38.90265625 -205.2034375 37.58265625 -204.5234375 36.22265625 C-203.8634375 36.22265625 -203.2034375 36.22265625 -202.5234375 36.22265625 C-202.1934375 35.23265625 -201.8634375 34.24265625 -201.5234375 33.22265625 C-200.8634375 33.22265625 -200.2034375 33.22265625 -199.5234375 33.22265625 C-199.5234375 32.56265625 -199.5234375 31.90265625 -199.5234375 31.22265625 C-197.86495573 30.20913961 -196.19677789 29.2114483 -194.5234375 28.22265625 C-193.8015625 27.50078125 -193.0796875 26.77890625 -192.3359375 26.03515625 C-191.7378125 25.43703125 -191.1396875 24.83890625 -190.5234375 24.22265625 C-189.8634375 24.22265625 -189.2034375 24.22265625 -188.5234375 24.22265625 C-188.5234375 23.56265625 -188.5234375 22.90265625 -188.5234375 22.22265625 C-186.80078125 20.890625 -186.80078125 20.890625 -184.4609375 19.41015625 C-181.55910804 17.54663764 -178.72273888 15.66261423 -175.9609375 13.59765625 C-172.98903644 11.45242193 -169.92089183 9.82951908 -166.6171875 8.25390625 C-164.40317033 7.16342018 -162.28543545 5.95669732 -160.1484375 4.72265625 C-156.30908305 2.57444602 -152.440281 0.86861982 -148.328125 -0.6875 C-146.35356185 -1.45477454 -144.40139413 -2.28097191 -142.46875 -3.1484375 C-99.80756468 -21.77038347 -41.54604603 -21.56437627 0 0 Z " fill="#A881EF" transform="translate(336.5234375,79.77734375)"/>
<path d="M0 0 C19.8 0 39.6 0 60 0 C60.66 6.27 61.32 12.54 62 19 C62.66 21.97 63.32 24.94 64 28 C63.67 29.32 63.34 30.64 63 32 C61 29 61 29 60.5 25.375 C60.2525 23.704375 60.2525 23.704375 60 22 C59.34 21.67 58.68 21.34 58 21 C57.01 21.33 56.02 21.66 55 22 C55.66 20.68 56.32 19.36 57 18 C57.66 18.33 58.32 18.66 59 19 C58.505 10.09 58.505 10.09 58 1 C39.52 1 21.04 1 2 1 C2 37.96 2 74.92 2 113 C1.67 113 1.34 113 1 113 C0.505 57.065 0.505 57.065 0 0 Z " fill="#36A6D6" transform="translate(74,239)"/>
<path d="M0 0 C1.32 0 2.64 0 4 0 C4 0.66 4 1.32 4 2 C5.32 2 6.64 2 8 2 C8 2.99 8 3.98 8 5 C10.475 5.99 10.475 5.99 13 7 C13 7.66 13 8.32 13 9 C16.3 9.66 19.6 10.32 23 11 C23.33 12.65 23.66 14.3 24 16 C26.32671865 17.01529541 28.6603447 18.01488198 31 19 C32.4375 21.6875 32.4375 21.6875 33 24 C29.28845183 22.65935182 26.32289425 20.99141423 23.125 18.6875 C22.26390625 18.06875 21.4028125 17.45 20.515625 16.8125 C19.68546875 16.214375 18.8553125 15.61625 18 15 C17.27296875 14.505 16.5459375 14.01 15.796875 13.5 C14.16233575 12.38372929 12.57521396 11.19853236 11 10 C11 9.34 11 8.68 11 8 C10.01 8 9.02 8 8 8 C8 7.34 8 6.68 8 6 C7.4225 5.7525 6.845 5.505 6.25 5.25 C3.6997003 3.83316683 1.98214299 2.12372463 0 0 Z " fill="#329FD5" transform="translate(135,377)"/>
<path d="M0 0 C-11.80294133 3.93431378 -26.14738451 3.18666734 -38.4375 3.1875 C-39.59185547 3.1882251 -40.74621094 3.1889502 -41.93554688 3.18969727 C-47.09115061 3.15585886 -51.9182726 2.9421048 -57 2 C-57 1.67 -57 1.34 -57 1 C-49.52554228 0.68878449 -42.05076039 0.38654711 -34.57568359 0.09057617 C-32.03230551 -0.01119141 -29.48900906 -0.11502106 -26.94580078 -0.22094727 C-23.29218692 -0.3727654 -19.63834452 -0.51718782 -15.984375 -0.66015625 C-14.84570984 -0.70906509 -13.70704468 -0.75797394 -12.53387451 -0.80836487 C-11.47307678 -0.8484819 -10.41227905 -0.88859894 -9.31933594 -0.92993164 C-8.38667908 -0.96768204 -7.45402222 -1.00543243 -6.49310303 -1.04432678 C-4.14703514 -1.00261425 -2.23712068 -0.6766592 0 0 Z " fill="#2F81A8" transform="translate(297,423)"/>
<path d="M0 0 C5.64892699 0.33569443 10.54496543 0.98405963 15.7734375 3.16796875 C20.37708645 4.88827967 25.2219831 5.87716603 30 7 C30.33 6.34 30.66 5.68 31 5 C32.485 5.99 32.485 5.99 34 7 C34 7.66 34 8.32 34 9 C36.31 9 38.62 9 41 9 C41.495 10.485 41.495 10.485 42 12 C35.26449108 11.43358942 29.15606253 10.1163768 22.6875 8.1875 C21.77266846 7.92050293 20.85783691 7.65350586 19.9152832 7.37841797 C13.22275354 5.40873797 6.58145495 3.31645412 0 1 C0 0.67 0 0.34 0 0 Z " fill="#2E88B2" transform="translate(190,412)"/>
<path d="M0 0 C2 2 2 2 3 11 C21.15 11.33 39.3 11.66 58 12 C58 12.33 58 12.66 58 13 C39.19 13 20.38 13 1 13 C0.06508817 8.32544083 -0.07972012 4.7034873 0 0 Z " fill="#8C75B8" transform="translate(388,238)"/>
<path d="M0 0 C-0.66 0 -1.32 0 -2 0 C-2 0.66 -2 1.32 -2 2 C-10.9707277 4.45058068 -19.9178637 4.22989644 -29.125 4.125 C-30.66926501 4.11494704 -32.21353638 4.10582529 -33.7578125 4.09765625 C-37.50534249 4.07583336 -41.25262946 4.04143206 -45 4 C-45 3.34 -45 2.68 -45 2 C-43.76507813 2.02320313 -42.53015625 2.04640625 -41.2578125 2.0703125 C-29.55692195 2.2202792 -10.47132925 -3.24972287 0 0 Z " fill="#369FD0" transform="translate(295,363)"/>
<path d="M0 0 C0.66 0.33 1.32 0.66 2 1 C0.515 3.475 0.515 3.475 -1 6 C-0.360625 6.53625 0.27875 7.0725 0.9375 7.625 C3.41216356 10.47461258 3.83754442 12.26352155 4 16 C3.34 16.66 2.68 17.32 2 18 C-0.97 15.03 -3.94 12.06 -7 9 C-6.34 7.68 -5.68 6.36 -5 5 C-4.34 5 -3.68 5 -3 5 C-2.67 4.01 -2.34 3.02 -2 2 C-1.34 2 -0.68 2 0 2 C0 1.34 0 0.68 0 0 Z " fill="#8B6FC3" transform="translate(137,111)"/>
<path d="M0 0 C-0.99 0 -1.98 0 -3 0 C-3.33 0.99 -3.66 1.98 -4 3 C-6.98220556 3.72295892 -9.40891904 3.98539575 -12.5 3.875 C-16.43450464 4.01551802 -17.71395102 4.9963116 -21 7 C-25.27531144 7.94424056 -29.6314111 8.1365184 -34 8 C-32.66666667 7.33333333 -31.33333333 6.66666667 -30 6 C-29.39800781 5.67410889 -28.79601562 5.34821777 -28.17578125 5.01245117 C-24.01280832 3.07530477 -19.46028507 2.32384371 -15 1.3125 C-14.00226563 1.07466797 -13.00453125 0.83683594 -11.9765625 0.59179688 C-11.01492187 0.37201172 -10.05328125 0.15222656 -9.0625 -0.07421875 C-8.18722656 -0.27619873 -7.31195313 -0.47817871 -6.41015625 -0.6862793 C-3.93673875 -1.00823447 -2.34842495 -0.77815415 0 0 Z " fill="#6D5699" transform="translate(232,68)"/>
<path d="M0 0 C0.66 0.33 1.32 0.66 2 1 C1.8671875 2.83203125 1.8671875 2.83203125 1 5 C-1.6171875 6.44921875 -1.6171875 6.44921875 -4.875 7.6875 C-5.94492187 8.10386719 -7.01484375 8.52023437 -8.1171875 8.94921875 C-10.06829148 9.66039351 -12.02989374 10.34329791 -14 11 C-14.73323796 13.01508358 -14.73323796 13.01508358 -15 15 C-15.33 14.34 -15.66 13.68 -16 13 C-20.455 13.495 -20.455 13.495 -25 14 C-22.4411232 11.66363423 -20.07530844 10.64580737 -16.8125 9.6875 C-11.54050581 8.04926048 -7.44368639 5.20338035 -3 2 C-2.01 1.34 -1.02 0.68 0 0 Z " fill="#2D8AB7" transform="translate(331,344)"/>
<path d="M0 0 C10.23 0.33 20.46 0.66 31 1 C31 1.33 31 1.66 31 2 C26.4794663 2.33748053 21.95853055 2.66924739 17.4375 3 C16.16068359 3.09539062 14.88386719 3.19078125 13.56835938 3.2890625 C12.32763672 3.37929687 11.08691406 3.46953125 9.80859375 3.5625 C8.67220459 3.64628906 7.53581543 3.73007813 6.36499023 3.81640625 C2.90311118 4.00528625 -0.53368718 4.0308288 -4 4 C-2.68 3.34 -1.36 2.68 0 2 C0 1.34 0 0.68 0 0 Z " fill="#7E67B2" transform="translate(241,122)"/>
<path d="M0 0 C2.31 0.33 4.62 0.66 7 1 C0.57323303 6.39019165 -5.69896764 11.2338229 -14 13 C-13.67 12.01 -13.34 11.02 -13 10 C-12.01 10 -11.02 10 -10 10 C-10 9.34 -10 8.68 -10 8 C-8.02 7.67 -6.04 7.34 -4 7 C-4 6.01 -4 5.02 -4 4 C-2.68 4 -1.36 4 0 4 C0 2.68 0 1.36 0 0 Z " fill="#2C87B1" transform="translate(358,393)"/>
<path d="M0 0 C1.65 1.65 3.3 3.3 5 5 C3.63422544 9.28493007 1.79318655 11.43145705 -1.625 14.3125 C-2.44226563 15.00988281 -3.25953125 15.70726562 -4.1015625 16.42578125 C-5.04128906 17.20501953 -5.04128906 17.20501953 -6 18 C-6.33 17.01 -6.66 16.02 -7 15 C-6.34 15 -5.68 15 -5 15 C-5.33 14.01 -5.66 13.02 -6 12 C-4.68 12 -3.36 12 -2 12 C-1.814375 10.7934375 -1.814375 10.7934375 -1.625 9.5625 C-1.41875 8.716875 -1.2125 7.87125 -1 7 C-0.34 6.67 0.32 6.34 1 6 C0.67 4.02 0.34 2.04 0 0 Z " fill="#3599C6" transform="translate(387,365)"/>
<path d="M0 0 C0.33 0 0.66 0 1 0 C1.47500542 2.13752439 1.94903701 4.275194 2.41796875 6.4140625 C2.79758956 8.10069991 3.19523124 9.78341198 3.61328125 11.4609375 C3.80277344 12.23695313 3.99226562 13.01296875 4.1875 13.8125 C4.45626953 14.87404297 4.45626953 14.87404297 4.73046875 15.95703125 C5.03190665 18.24184316 4.69125479 19.81838027 4 22 C2 19 2 19 1.5 15.375 C1.335 14.26125 1.17 13.1475 1 12 C0.34 11.67 -0.32 11.34 -1 11 C-1.99 11.33 -2.98 11.66 -4 12 C-3.34 10.68 -2.68 9.36 -2 8 C-1.34 8.33 -0.68 8.66 0 9 C0 6.03 0 3.06 0 0 Z " fill="#35B1F1" transform="translate(133,249)"/>
<path d="M0 0 C1.4800841 0.11362262 2.95910074 0.24122908 4.4375 0.375 C5.26121094 0.44460937 6.08492188 0.51421875 6.93359375 0.5859375 C7.95646484 0.79089844 7.95646484 0.79089844 9 1 C9.33 1.66 9.66 2.32 10 3 C10.825 3.309375 11.65 3.61875 12.5 3.9375 C13.7375 4.4634375 13.7375 4.4634375 15 5 C15.33 5.99 15.66 6.98 16 8 C16.99 8.33 17.98 8.66 19 9 C19 9.66 19 10.32 19 11 C15.79612968 9.42073373 12.64315563 7.75928594 9.5 6.0625 C8.09234375 5.30646484 8.09234375 5.30646484 6.65625 4.53515625 C4.2818121 3.16287082 2.14891533 1.69784584 0 0 Z " fill="#7A61AD" transform="translate(316,136)"/>
<path d="M0 0 C-2.26727333 1.17407021 -4.53834624 2.33939739 -6.8125 3.5 C-7.45509766 3.83386719 -8.09769531 4.16773438 -8.75976562 4.51171875 C-11.69547699 6.00239084 -13.66126517 7 -17 7 C-17 6.34 -17 5.68 -17 5 C-17.66 5 -18.32 5 -19 5 C-18.67 4.34 -18.34 3.68 -18 3 C-15.03 3.495 -15.03 3.495 -12 4 C-12 3.34 -12 2.68 -12 2 C-10.35 2 -8.7 2 -7 2 C-7 1.34 -7 0.68 -7 0 C-2.25 -1.125 -2.25 -1.125 0 0 Z " fill="#2E88B7" transform="translate(343,407)"/>
<path d="M0 0 C3.15771423 3.15771423 2.62506773 6.62579022 3 11 C5.97 11 8.94 11 12 11 C12 11.33 12 11.66 12 12 C8.37 12.33 4.74 12.66 1 13 C0.06508817 8.32544083 -0.07972012 4.7034873 0 0 Z " fill="#846BB5" transform="translate(388,238)"/>
<path d="M0 0 C0.33 0.66 0.66 1.32 1 2 C1.33 1.34 1.66 0.68 2 0 C2.66 0 3.32 0 4 0 C4.82638376 2.89234315 5 4.88742431 5 8 C5.99 8.33 6.98 8.66 8 9 C8 10.98 8 12.96 8 15 C5.24091241 13.62045621 4.78517015 11.93513795 3.4375 9.1875 C3.00308594 8.31480469 2.56867188 7.44210938 2.12109375 6.54296875 C1.15245937 4.34582247 0.4860214 2.34273236 0 0 Z " fill="#7961AA" transform="translate(370,184)"/>
<path d="M0 0 C2.16874252 0.50603992 3.99967627 0.99983813 6 2 C6 2.66 6 3.32 6 4 C6.763125 4.268125 7.52625 4.53625 8.3125 4.8125 C10.87380884 5.94424112 12.19692938 6.91223401 14 9 C11.70284991 9.82041075 10.37315341 10.1049494 8 9.4375 C5.21407477 7.43511624 3.80483154 4.88773047 2 2 C1.34 1.34 0.68 0.68 0 0 Z " fill="#7B61AB" transform="translate(357,91)"/>
<path d="M0 0 C1.32 0.33 2.64 0.66 4 1 C4 1.66 4 2.32 4 3 C6.475 3.99 6.475 3.99 9 5 C9 7.31 9 9.62 9 12 C4.99027798 8.32442148 2.54664585 4.81033104 0 0 Z " fill="#8E70C7" transform="translate(358,168)"/>
<path d="M0 0 C1.32 0 2.64 0 4 0 C4 0.66 4 1.32 4 2 C5.32 2 6.64 2 8 2 C8 2.99 8 3.98 8 5 C8.804375 5.2475 9.60875 5.495 10.4375 5.75 C13 7 13 7 13.8125 9.125 C13.874375 9.74375 13.93625 10.3625 14 11 C13.01 10.67 12.02 10.34 11 10 C11 9.34 11 8.68 11 8 C10.01 8 9.02 8 8 8 C8 7.34 8 6.68 8 6 C7.4225 5.7525 6.845 5.505 6.25 5.25 C3.6997003 3.83316683 1.98214299 2.12372463 0 0 Z " fill="#2B83AB" transform="translate(135,377)"/>
<path d="M0 0 C0.98097656 0.14308594 1.96195313 0.28617187 2.97265625 0.43359375 C7.12161609 1.0263023 11.27813321 1.54876302 15.4375 2.0625 C16.16904297 2.15337891 16.90058594 2.24425781 17.65429688 2.33789062 C19.43612723 2.55916368 21.21805361 2.77966329 23 3 C23 3.33 23 3.66 23 4 C16.73 4 10.46 4 4 4 C3.67 3.34 3.34 2.68 3 2 C2.01 1.34 1.02 0.68 0 0 Z " fill="#3084AE" transform="translate(226,362)"/>
<path d="M0 0 C0 0.33 0 0.66 0 1 C-4.34492771 2.13896163 -8.38620785 1.93100471 -12.8125 1.5625 C-13.85180664 1.48418945 -13.85180664 1.48418945 -14.91210938 1.40429688 C-16.60854437 1.27560181 -18.30434863 1.13863816 -20 1 C-20 0.67 -20 0.34 -20 0 C-19.22914063 -0.06058594 -18.45828125 -0.12117188 -17.6640625 -0.18359375 C-16.15972656 -0.30927734 -16.15972656 -0.30927734 -14.625 -0.4375 C-13.62726563 -0.51871094 -12.62953125 -0.59992188 -11.6015625 -0.68359375 C-4.79931193 -1.5108945 -4.79931193 -1.5108945 0 0 Z " fill="#7D66B1" transform="translate(292,124)"/>
<path d="M0 0 C6.43681228 0.51085812 11.95942424 1.72942897 18 4 C15.0696288 5.4651856 13.2065162 4.64130324 10 4 C9.22140625 3.85304688 8.4428125 3.70609375 7.640625 3.5546875 C6.42632812 3.31105469 6.42632812 3.31105469 5.1875 3.0625 C4.41792969 2.90910156 3.64835937 2.75570312 2.85546875 2.59765625 C2.24316406 2.40042969 1.63085938 2.20320313 1 2 C0.67 1.34 0.34 0.68 0 0 Z " fill="#685591" transform="translate(304,70)"/>
<path d="M0 0 C3.59478807 3.32850747 6.22364768 6.98971331 9 11 C8.01 11.495 8.01 11.495 7 12 C7 11.34 7 10.68 7 10 C5.02 9.34 3.04 8.68 1 8 C0.67 5.36 0.34 2.72 0 0 Z " fill="#2F97C6" transform="translate(154,308)"/>
<path d="M0 0 C-0.66 0 -1.32 0 -2 0 C-2 0.66 -2 1.32 -2 2 C-9.68483539 2.67453101 -17.28410183 3.1567564 -25 3 C-25 2.67 -25 2.34 -25 2 C-23.73542969 1.86722656 -22.47085937 1.73445313 -21.16796875 1.59765625 C-19.50779375 1.41944537 -17.84763852 1.24105037 -16.1875 1.0625 C-15.35412109 0.97548828 -14.52074219 0.88847656 -13.66210938 0.79882812 C-12.45844727 0.66831055 -12.45844727 0.66831055 -11.23046875 0.53515625 C-10.49207764 0.456604 -9.75368652 0.37805176 -8.99291992 0.29711914 C-2.27152446 -0.70495587 -2.27152446 -0.70495587 0 0 Z " fill="#277695" transform="translate(295,363)"/>
<path d="M0 0 C0.66 0.33 1.32 0.66 2 1 C1.78515625 2.890625 1.78515625 2.890625 1 5 C-1.06640625 6.046875 -1.06640625 6.046875 -3.5625 6.75 C-4.80193359 7.11351562 -4.80193359 7.11351562 -6.06640625 7.484375 C-7.02353516 7.73960937 -7.02353516 7.73960937 -8 8 C-8 7.01 -8 6.02 -8 5 C-6.3203125 3.578125 -6.3203125 3.578125 -4.125 2.25 C-3.40570313 1.80140625 -2.68640625 1.3528125 -1.9453125 0.890625 C-1.30335938 0.59671875 -0.66140625 0.3028125 0 0 Z " fill="#3095CB" transform="translate(331,344)"/>
<path d="M0 0 C2.4375 0.375 2.4375 0.375 5 1 C5.33 1.66 5.66 2.32 6 3 C6.99 2.34 7.98 1.68 9 1 C8.67 2.98 8.34 4.96 8 7 C8.66 7.33 9.32 7.66 10 8 C7 8 7 8 5.17578125 6.50390625 C4.56089844 5.86324219 3.94601563 5.22257813 3.3125 4.5625 C2.68988281 3.92441406 2.06726563 3.28632813 1.42578125 2.62890625 C0 1 0 1 0 0 Z " fill="#8F73C7" transform="translate(155,144)"/>
<path d="M0 0 C2.875 -0.125 2.875 -0.125 6 0 C8 2 8 2 8 4 C7.68521554 5.33783393 7.35412344 6.67203709 7 8 C5.83035398 6.8572081 4.66435444 5.71068285 3.5 4.5625 C2.8503125 3.92441406 2.200625 3.28632813 1.53125 2.62890625 C0 1 0 1 0 0 Z " fill="#9174CC" transform="translate(140,129)"/>
<path d="M0 0 C0.66 0.33 1.32 0.66 2 1 C1.34 2.32 0.68 3.64 0 5 C-0.66 5 -1.32 5 -2 5 C-2 5.99 -2 6.98 -2 8 C-4.31 8.33 -6.62 8.66 -9 9 C-7.37660195 7.29115995 -5.70680947 5.62553283 -4 4 C-3.34 4 -2.68 4 -2 4 C-2 3.34 -2 2.68 -2 2 C-1.34 2 -0.68 2 0 2 C0 1.34 0 0.68 0 0 Z " fill="#277CAB" transform="translate(342,335)"/>
<path d="M0 0 C5.37305699 0.1761658 5.37305699 0.1761658 8 1 C10 4.0625 10 4.0625 11 7 C6.89188572 5.55007731 3.53144334 3.54592427 0 1 C0 0.67 0 0.34 0 0 Z " fill="#287EA3" transform="translate(157,394)"/>
<path d="M0 0 C2.31 0.33 4.62 0.66 7 1 C4.25906335 2.8272911 1.86174676 3.93698178 -1.1875 5.125 C-2.08855469 5.47820312 -2.98960937 5.83140625 -3.91796875 6.1953125 C-4.94857422 6.59363281 -4.94857422 6.59363281 -6 7 C-6 6.01 -6 5.02 -6 4 C-4.02 3.34 -2.04 2.68 0 2 C0 1.34 0 0.68 0 0 Z " fill="#755EA8" transform="translate(210,131)"/>
<path d="M0 0 C1.58409994 0.11487748 3.16728963 0.24234508 4.75 0.375 C6.07257813 0.47941406 6.07257813 0.47941406 7.421875 0.5859375 C9.99066382 0.99850055 11.75841015 1.71160957 14 3 C14 3.66 14 4.32 14 5 C12.22739369 4.54857225 10.4569632 4.08859477 8.6875 3.625 C7.20830078 3.24214844 7.20830078 3.24214844 5.69921875 2.8515625 C3 2 3 2 0 0 Z " fill="#237297" transform="translate(190,412)"/>
<path d="M0 0 C0.66 0 1.32 0 2 0 C2.66 1.32 3.32 2.64 4 4 C3.0409375 4.2165625 3.0409375 4.2165625 2.0625 4.4375 C0.02454854 4.81007181 0.02454854 4.81007181 -1 6 C-2.66617115 6.04063832 -4.33388095 6.042721 -6 6 C-4 4 -2 2 0 0 Z " fill="#3392BB" transform="translate(350,329)"/>
<path d="M0 0 C1.23556641 0.01740234 1.23556641 0.01740234 2.49609375 0.03515625 C3.32238281 0.04417969 4.14867187 0.05320312 5 0.0625 C5.63808594 0.07410156 6.27617187 0.08570312 6.93359375 0.09765625 C6.60359375 0.75765625 6.27359375 1.41765625 5.93359375 2.09765625 C1.56028831 2.82654049 -2.62803405 3.23635538 -7.06640625 3.09765625 C-6.42703125 2.78828125 -5.78765625 2.47890625 -5.12890625 2.16015625 C-1.03016727 0.04868465 -1.03016727 0.04868465 0 0 Z " fill="#846BB5" transform="translate(205.06640625,72.90234375)"/>
<path d="M0 0 C-2.52480693 2.52480693 -4.13823034 2.55738633 -7.625 3.125 C-8.62789063 3.29257812 -9.63078125 3.46015625 -10.6640625 3.6328125 C-11.43492187 3.75398438 -12.20578125 3.87515625 -13 4 C-13 3.34 -13 2.68 -13 2 C-8.46298506 0.54815522 -4.81938524 -0.23509196 0 0 Z " fill="#297397" transform="translate(313,418)"/>
<path d="M0 0 C-5.75 4 -5.75 4 -8 4 C-8.33 4.66 -8.66 5.32 -9 6 C-9 4.02 -9 2.04 -9 0 C-2.25 -1.125 -2.25 -1.125 0 0 Z " fill="#2C8CBA" transform="translate(380,384)"/>
<path d="M0 0 C1.32 0.66 2.64 1.32 4 2 C1.36 4.31 -1.28 6.62 -4 9 C-4.33 8.01 -4.66 7.02 -5 6 C-4.34 6 -3.68 6 -3 6 C-3.33 5.01 -3.66 4.02 -4 3 C-2.68 3 -1.36 3 0 3 C0 2.01 0 1.02 0 0 Z " fill="#267CA6" transform="translate(385,374)"/>
<path d="M0 0 C1.43931117 0.45261358 2.87638999 0.91232979 4.3125 1.375 C5.11300781 1.63023437 5.91351563 1.88546875 6.73828125 2.1484375 C9 3 9 3 12 5 C10.02 5.33 8.04 5.66 6 6 C6 5.01 6 4.02 6 3 C4.68 3.33 3.36 3.66 2 4 C1.34 2.68 0.68 1.36 0 0 Z " fill="#2F8AB0" transform="translate(204,353)"/>
<path d="M0 0 C0.99 0.495 0.99 0.495 2 1 C2 1.66 2 2.32 2 3 C2.66 3 3.32 3 4 3 C4 3.66 4 4.32 4 5 C4.66 5 5.32 5 6 5 C6.66 6.32 7.32 7.64 8 9 C5.125 8.4375 5.125 8.4375 2 7 C0.625 3.375 0.625 3.375 0 0 Z " fill="#3190B7" transform="translate(163,320)"/>
<path d="M0 0 C0.33 1.32 0.66 2.64 1 4 C-4.445 5.485 -4.445 5.485 -10 7 C-7.93814793 3.9072219 -7.09630198 3.31923802 -3.875 1.8125 C-3.15054688 1.46832031 -2.42609375 1.12414062 -1.6796875 0.76953125 C-1.12539062 0.51558594 -0.57109375 0.26164062 0 0 Z " fill="#674E8F" transform="translate(172,87)"/>
<path d="M0 0 C1.67110042 2.96178773 2.32682752 5.37071192 2.625 8.75 C2.69976562 9.54921875 2.77453125 10.3484375 2.8515625 11.171875 C2.90054688 11.77515625 2.94953125 12.3784375 3 13 C0.75393573 11.22555028 0.04918998 10.41647515 -0.29296875 7.51953125 C-0.25816406 6.62621094 -0.22335938 5.73289062 -0.1875 4.8125 C-0.16042969 3.91144531 -0.13335937 3.01039063 -0.10546875 2.08203125 C-0.07066406 1.39496094 -0.03585938 0.70789063 0 0 Z " fill="#277FB1" transform="translate(135,258)"/>
<path d="M0 0 C2.875 0.1875 2.875 0.1875 6 1 C7.375 3.5625 7.375 3.5625 8 6 C5 6 5 6 3.61328125 4.6875 C2.40885417 3.125 1.20442708 1.5625 0 0 Z " fill="#725BA4" transform="translate(349,159)"/>
<path d="M0 0 C1.8871875 0.061875 1.8871875 0.061875 3.8125 0.125 C3.1525 1.445 2.4925 2.765 1.8125 4.125 C1.4825 3.465 1.1525 2.805 0.8125 2.125 C-1.8275 2.125 -4.4675 2.125 -7.1875 2.125 C-4.09861478 0.06574319 -3.47814073 -0.1140374 0 0 Z " fill="#A585E7" transform="translate(236.1875,66.875)"/>
<path d="M0 0 C1.65 0 3.3 0 5 0 C2.42595029 3.86107457 0.38979741 3.94319692 -4 5 C-3.67 4.01 -3.34 3.02 -3 2 C-2.01 2 -1.02 2 0 2 C0 1.34 0 0.68 0 0 Z " fill="#277295" transform="translate(348,401)"/>
<path d="M0 0 C2.6855594 2.6855594 3.06049974 5.37621328 4 9 C2.35 8.01 0.7 7.02 -1 6 C-0.67 4.02 -0.34 2.04 0 0 Z " fill="#2B8ABF" transform="translate(140,278)"/>
<path d="M0 0 C4.75 0.75 4.75 0.75 7 3 C6.67 3.99 6.34 4.98 6 6 C3.97945196 4.35830472 1.97956942 2.69088222 0 1 C0 0.67 0 0.34 0 0 Z " fill="#6B5893" transform="translate(335,147)"/>
<path d="M0 0 C2 3 2 3 2 7 C1.01 7.33 0.02 7.66 -1 8 C-2.2077558 4.37673261 -1.54311128 3.35853631 0 0 Z " fill="#9B79D3" transform="translate(390,109)"/>
<path d="M0 0 C3.3 0.99 6.6 1.98 10 3 C5.59232396 4.10191901 4.1077065 3.58706842 0 2 C0 1.34 0 0.68 0 0 Z " fill="#2B7CA2" transform="translate(216,358)"/>
<path d="M0 0 C1.32 0.33 2.64 0.66 4 1 C4 1.66 4 2.32 4 3 C4.66 3.33 5.32 3.66 6 4 C5.67 5.32 5.34 6.64 5 8 C2.525 4.04 2.525 4.04 0 0 Z " fill="#665094" transform="translate(358,168)"/>
<path d="M0 0 C2.97 0.495 2.97 0.495 6 1 C6 2.65 6 4.3 6 6 C3.97945196 4.35830472 1.97956942 2.69088222 0 1 C0 0.67 0 0.34 0 0 Z " fill="#7D67AB" transform="translate(343,153)"/>
</svg>
