<?xml version="1.0" encoding="UTF-8"?>
<svg version="1.1" xmlns="http://www.w3.org/2000/svg" width="3581" height="616">
<path d="M0 0 C31.02 0 62.04 0 94 0 C94.06625105 45.4363318 94.12159928 90.87261771 94.15319599 136.30898407 C94.15694769 141.68442371 94.1608307 147.05986325 94.16479492 152.43530273 C94.16558185 153.50536629 94.16636878 154.57542985 94.16717956 155.67791957 C94.18020062 172.95900474 94.2038361 190.24005968 94.23145839 207.52112698 C94.25960474 225.27939069 94.27619568 243.03763867 94.28226548 260.79592377 C94.28636287 271.73613545 94.29926014 282.67626169 94.3237494 293.61644704 C94.33972081 301.13883746 94.34437484 308.6611843 94.34050413 316.1835904 C94.33860014 320.51069032 94.34132471 324.83764191 94.35761642 329.16471481 C94.52766286 376.77269272 86.44495785 420.6758598 64 463 C63.07960938 464.73636719 63.07960938 464.73636719 62.140625 466.5078125 C53.07145003 482.95974561 41.67194314 498.09883807 28.85522461 511.80395508 C26.77633694 514.02984629 24.78720573 516.2684603 22.89453125 518.65625 C21.18456452 520.77167275 19.51262109 522.44403974 17.4375 524.1875 C15.1407313 526.14059163 12.8905079 528.10390577 10.703125 530.1796875 C-26.49655408 565.41540837 -75.84501918 584.99549556 -126 592 C-126.74080811 592.10602539 -127.48161621 592.21205078 -128.24487305 592.32128906 C-137.33418664 593.42710766 -146.54575868 593.2439597 -155.6875 593.25 C-156.60384216 593.25067474 -157.52018433 593.25134949 -158.46429443 593.25204468 C-172.52683091 593.23560392 -186.15643356 592.65128783 -200 590 C-200.90137695 589.83902832 -201.80275391 589.67805664 -202.73144531 589.51220703 C-260.54687663 579.04510025 -315.90841681 546.73052002 -352 500 C-353.16015625 498.56527344 -353.16015625 498.56527344 -354.34375 497.1015625 C-395.51408178 445.37807605 -412.62167269 378.21212199 -405.35498047 312.93066406 C-402.37553859 288.33285088 -395.97538079 264.67727213 -386 242 C-385.66274902 241.21995605 -385.32549805 240.43991211 -384.97802734 239.63623047 C-376.52446224 220.25361394 -365.22709429 202.46980879 -352 186 C-351.53303711 185.41734375 -351.06607422 184.8346875 -350.58496094 184.234375 C-339.22725035 170.21679752 -326.42419124 156.8739332 -312 146 C-311.46262207 145.58621094 -310.92524414 145.17242187 -310.37158203 144.74609375 C-300.37139835 137.0575244 -289.8965547 130.34318162 -279 124 C-278.38753418 123.6380957 -277.77506836 123.27619141 -277.14404297 122.90332031 C-240.78807528 101.60139363 -198.13110838 92.52042017 -156.375 92.6875 C-155.40444672 92.68965515 -154.43389343 92.6918103 -153.43392944 92.69403076 C-139.10569102 92.7450666 -125.07814218 93.09241562 -111 96 C-110.01692871 96.19867676 -109.03385742 96.39735352 -108.02099609 96.60205078 C-77.23652278 103.00449226 -47.79693499 114.44126748 -21.3125 131.4375 C-20.66015381 131.85555908 -20.00780762 132.27361816 -19.33569336 132.7043457 C-12.98038261 136.86648819 -7.11600712 141.41299466 -1 146 C-0.67 97.82 -0.34 49.64 0 0 Z M-265 230 C-265.75023437 230.67675781 -266.50046875 231.35351562 -267.2734375 232.05078125 C-295.98362266 259.41334547 -311.78791533 299.47076802 -313.125 338.6640625 C-313.79790374 381.30933671 -298.03233285 421.62143821 -268.56787109 452.4597168 C-239.26075866 482.3619545 -199.48030032 499.25883499 -157.64794922 500.00683594 C-115.71013225 499.8985694 -77.18826434 483.88228286 -47 455 C-46.13246094 454.20722656 -45.26492188 453.41445313 -44.37109375 452.59765625 C-23.14110823 432.51523751 -9.36659199 404.26717492 -3 376 C-2.83628906 375.27973633 -2.67257812 374.55947266 -2.50390625 373.81738281 C6.02276963 334.40793251 -2.728941 292.99770342 -23.8359375 259.046875 C-46.93416219 223.44091599 -82.73179754 198.31304468 -124.3125 189.25 C-176.64531799 179.67830493 -225.79272748 194.59565365 -265 230 Z " fill="#001868" transform="translate(1235,11)"/>
<path d="M0 0 C1.35279808 -0.01058945 1.35279808 -0.01058945 2.73292542 -0.02139282 C40.61043231 -0.25053783 40.61043231 -0.25053783 57.3046875 3.203125 C58.28244141 3.40180176 59.26019531 3.60047852 60.26757812 3.80517578 C93.87935281 10.83836061 126.30043941 23.02683602 154.3046875 43.203125 C154.90700195 43.63705566 155.50931641 44.07098633 156.12988281 44.51806641 C175.15610049 58.30758021 192.87130174 73.55596554 207.3046875 92.203125 C208.30914825 93.45632873 209.31441364 94.70888779 210.3203125 95.9609375 C222.355004 111.11439728 232.2317886 127.6230771 240.3046875 145.203125 C240.7989624 146.27433594 240.7989624 146.27433594 241.30322266 147.3671875 C265.26784676 199.99538161 263.46927094 255.40888052 263.40608144 311.9107132 C263.40039076 317.87502043 263.39945155 323.83932783 263.39842957 329.80363727 C263.39626103 341.58784514 263.38966181 353.37204595 263.38012695 365.15625 C263.37089509 376.57812465 263.36384281 387.99999735 263.35961914 399.421875 C263.35922506 400.48458268 263.35922506 400.48458268 263.35882301 401.5687592 C263.35751762 405.12427599 263.356254 408.67979279 263.35501111 412.2353096 C263.34470723 441.55792005 263.32630693 470.88052038 263.3046875 500.203125 C232.2846875 500.203125 201.2646875 500.203125 169.3046875 500.203125 C169.3046875 482.383125 169.3046875 464.563125 169.3046875 446.203125 C163.3646875 450.493125 157.4246875 454.783125 151.3046875 459.203125 C148.0429972 461.34530683 144.84467126 463.41941246 141.4921875 465.390625 C140.6765332 465.87418457 139.86087891 466.35774414 139.02050781 466.85595703 C124.82243889 475.11788095 109.86194912 481.94089236 94.3046875 487.203125 C93.19577148 487.58162598 93.19577148 487.58162598 92.06445312 487.96777344 C80.63892903 491.8287797 69.17539824 495.04809008 57.3046875 497.203125 C56.49692871 497.35410645 55.68916992 497.50508789 54.85693359 497.66064453 C27.25051559 502.57918181 -4.17415778 502.69471948 -31.6953125 497.203125 C-32.62134277 497.02088379 -33.54737305 496.83864258 -34.50146484 496.65087891 C-46.4616205 494.23462467 -58.15790933 491.16873294 -69.6953125 487.203125 C-70.92636719 486.78675781 -72.15742187 486.37039063 -73.42578125 485.94140625 C-103.88450153 475.28241935 -132.7036442 458.18856818 -155.984375 435.796875 C-158.18614098 433.69028622 -160.41841849 431.71352858 -162.7578125 429.765625 C-207.1336358 391.05282518 -233.38944087 327.95108978 -237.6953125 270.203125 C-238.02691469 263.66425591 -238.03717375 257.12379917 -238.0078125 250.578125 C-238.00565735 249.70605408 -238.0035022 248.83398315 -238.00128174 247.93548584 C-237.85088663 209.84553326 -229.37451236 173.472723 -212.6953125 139.203125 C-212.33711426 138.46610352 -211.97891602 137.72908203 -211.60986328 136.96972656 C-202.02031957 117.50975548 -189.47192039 99.42620883 -174.78125 83.47265625 C-172.85376574 81.3755245 -170.98769893 79.23936145 -169.1328125 77.078125 C-162.29657337 69.27198467 -154.81058727 62.65560507 -146.6953125 56.203125 C-145.62178139 55.32757576 -144.54888253 54.45125083 -143.4765625 53.57421875 C-103.85347191 21.42837951 -51.41169592 0.26839462 0 0 Z M-102.546875 143.08203125 C-129.2959493 172.42994926 -143.91416964 210.01508586 -143.9453125 249.578125 C-143.94598724 250.34423096 -143.94666199 251.11033691 -143.94735718 251.8996582 C-143.93182392 262.97791817 -143.50929917 273.43312783 -140.6953125 284.203125 C-140.33965047 285.68354733 -139.98419124 287.16401839 -139.62890625 288.64453125 C-137.03953837 298.99652147 -133.37044622 308.62249569 -128.6953125 318.203125 C-128.23318359 319.15614502 -128.23318359 319.15614502 -127.76171875 320.12841797 C-121.42246879 333.02063741 -113.55005864 344.53672551 -103.703125 355.01953125 C-101.6953125 357.203125 -101.6953125 357.203125 -99.640625 359.7890625 C-78.15700233 386.44946172 -39.13917273 401.93667887 -6.0703125 405.9296875 C36.22310142 410.43801479 76.52086642 398.56085004 110.25390625 372.69140625 C118.55940486 365.91726718 126.67417105 358.65378322 133.3046875 350.203125 C133.69833496 349.70538574 134.09198242 349.20764648 134.49755859 348.69482422 C160.5371478 315.46325666 172.681334 274.2759452 168.3046875 232.203125 C163.3734501 191.86122726 143.02210512 153.84347495 111.3046875 128.203125 C45.34816487 77.81146386 -44.30286235 83.97787495 -102.546875 143.08203125 Z " fill="#001868" transform="translate(1678.6953125,103.796875)"/>
<path d="M0 0 C0.97055328 0.00215515 1.94110657 0.0043103 2.94107056 0.00653076 C17.2658522 0.05755429 31.30182151 0.39219183 45.375 3.3125 C46.86555908 3.61849121 46.86555908 3.61849121 48.38623047 3.93066406 C83.55852917 11.36897996 117.360644 24.83321556 146.375 46.3125 C146.95717285 46.73917969 147.5393457 47.16585937 148.13916016 47.60546875 C155.07195559 52.71033086 161.59606499 58.15660654 167.90234375 64.02734375 C169.97360099 65.94153883 172.08414701 67.75837611 174.25 69.5625 C219.7702526 109.42748701 245.44883259 172.10948681 250.375 231.3125 C250.84648944 240.445479 250.75719511 249.58847888 250.71557617 258.73046875 C250.71472753 261.38423064 250.71507847 264.03796779 250.71690369 266.69172668 C250.71845929 272.35043672 250.70923253 278.00904114 250.69219017 283.66772461 C250.66756769 291.84871146 250.65997147 300.02964845 250.6562262 308.21066833 C250.64969765 321.49122302 250.62983543 334.77172172 250.60131836 348.05224609 C250.57368376 360.93538131 250.55249652 373.81850119 250.53979492 386.70166016 C250.53900675 387.4988566 250.53821858 388.29605305 250.53740653 389.11740696 C250.53349076 393.11762681 250.52969979 397.11784676 250.52597082 401.11806679 C250.49498721 434.18292753 250.43974573 467.24768385 250.375 500.3125 C219.355 500.3125 188.335 500.3125 156.375 500.3125 C156.045 482.8225 155.715 465.3325 155.375 447.3125 C147.455 453.2525 147.455 453.2525 139.375 459.3125 C135.4118774 461.83335485 131.51167387 464.2522152 127.4375 466.5625 C126.40810303 467.15184326 125.37870605 467.74118652 124.31811523 468.34838867 C100.87878683 481.62086497 75.78425998 490.90729088 49.375 496.3125 C48.3526123 496.52277832 47.33022461 496.73305664 46.27685547 496.94970703 C17.39479928 502.59384087 -14.71025386 502.90606094 -43.625 497.3125 C-44.54087891 497.14621094 -45.45675781 496.97992187 -46.40039062 496.80859375 C-79.86656129 490.64917584 -113.99129901 477.45978 -141.625 457.3125 C-142.22586426 456.87856934 -142.82672852 456.44463867 -143.44580078 455.99755859 C-162.47747077 442.2075218 -180.18317287 426.95991415 -194.625 408.3125 C-195.41132813 407.33152344 -196.19765625 406.35054688 -197.0078125 405.33984375 C-223.95574853 371.46881918 -240.36688586 331.82431139 -247.625 289.3125 C-247.75245605 288.57370605 -247.87991211 287.83491211 -248.01123047 287.07373047 C-258.31782504 224.85130291 -241.76485011 157.12607579 -205.25561523 106.00683594 C-203.09833013 103.0663667 -200.88023559 100.17830798 -198.625 97.3125 C-197.86703125 96.343125 -197.1090625 95.37375 -196.328125 94.375 C-184.54966404 79.67280759 -171.45403301 65.94351353 -156.625 54.3125 C-155.6865625 53.54550781 -154.748125 52.77851563 -153.78125 51.98828125 C-139.97425743 40.93912869 -124.62630165 31.67881348 -108.59521484 24.23193359 C-106.56955742 23.2866268 -104.56096958 22.3097419 -102.55078125 21.33203125 C-85.8849895 13.40105587 -68.08578005 8.25342324 -50.0625 4.4375 C-49.16128418 4.24647705 -48.26006836 4.0554541 -47.33154297 3.85864258 C-31.56678888 0.72755964 -16.03324595 -0.06415425 0 0 Z M-111.24316406 139.88720703 C-140.27566964 169.07251527 -156.36955423 209.11408954 -156.69140625 250.16015625 C-156.47467097 294.42833685 -137.99085816 332.77872422 -107.625 364.3125 C-105.07958427 366.82737074 -102.43532933 369.09830113 -99.625 371.3125 C-99.12581055 371.70759766 -98.62662109 372.10269531 -98.11230469 372.50976562 C-64.71733976 398.67529241 -23.68420095 410.68499113 18.53125 406.09765625 C54.60977492 401.58182755 87.0250078 385.312492 112.375 359.3125 C113.01695312 358.71566406 113.65890625 358.11882812 114.3203125 357.50390625 C139.15558443 333.92337802 155.68973859 295.27704743 156.64074707 261.29464722 C156.70067814 257.71679377 156.70553747 254.1407382 156.6875 250.5625 C156.68567719 249.81137939 156.68385437 249.06025879 156.68197632 248.28637695 C156.63720428 237.33224928 156.15690774 226.95972119 153.375 216.3125 C153.01933797 214.83207767 152.66387874 213.35160661 152.30859375 211.87109375 C149.71922587 201.51910353 146.05013372 191.89312931 141.375 182.3125 C141.06691406 181.67715332 140.75882813 181.04180664 140.44140625 180.38720703 C134.10215629 167.49498759 126.22974614 155.97889949 116.3828125 145.49609375 C114.375 143.3125 114.375 143.3125 112.6171875 140.97265625 C89.83977599 113.94928127 50.72123815 97.24154551 16.13183594 94.109375 C-31.86337448 90.13366661 -76.80558204 106.37447256 -111.24316406 139.88720703 Z " fill="#001868" transform="translate(3125.625,103.6875)"/>
<path d="M0 0 C0.94720917 0.00215515 1.89441833 0.0043103 2.87033081 0.00653076 C17.06687392 0.05830965 30.91832023 0.4978987 44.875 3.3125 C45.89190918 3.51117676 46.90881836 3.70985352 47.95654297 3.91455078 C101.62261176 14.65098145 154.64214976 42.62503779 189.875 85.3125 C190.69097656 86.240625 191.50695313 87.16875 192.34765625 88.125 C203.43738413 100.78367346 212.51502213 114.73743539 220.875 129.3125 C221.52984375 130.43269531 222.1846875 131.55289063 222.859375 132.70703125 C244.39502879 171.0835663 252.23220358 213.52289893 252.10205078 257.02758789 C252.10148567 259.69016423 252.10171748 262.35272956 252.10293579 265.01530457 C252.10397708 270.71449241 252.09778034 276.41363394 252.08646011 282.11281013 C252.0701044 290.35253497 252.06498689 298.59223775 252.06248413 306.83197706 C252.0581227 320.20513602 252.04485604 333.57827039 252.02587891 346.95141602 C252.00747971 359.93090696 251.99334306 372.9103912 251.98486328 385.88989258 C251.98433783 386.69191508 251.98381239 387.49393759 251.98327102 388.32026381 C251.98066067 392.34436222 251.97813332 396.36846068 251.97564721 400.39255917 C251.95496311 433.69922793 251.9181197 467.00585086 251.875 500.3125 C221.185 500.3125 190.495 500.3125 158.875 500.3125 C158.85518066 492.8241748 158.83536133 485.33584961 158.81494141 477.62060547 C158.74995314 453.58310397 158.67540913 429.54564167 158.59494839 405.50818741 C158.58243149 401.7662007 158.56999841 398.02421372 158.55761719 394.28222656 C158.5539182 393.16491635 158.5539182 393.16491635 158.55014448 392.0250342 C158.510563 380.00893615 158.47775149 367.99282886 158.44750018 355.97670411 C158.4162411 343.62101482 158.37757161 331.26536426 158.33220994 318.90971863 C158.30451128 311.30305083 158.28239895 303.6964109 158.26773749 296.08970661 C158.25581762 290.22897507 158.23352222 284.36831604 158.20761681 278.5076313 C158.19864042 276.12384745 158.19287445 273.74004869 158.19078636 271.35624886 C158.17180218 252.95502396 158.0973807 234.03900253 153.6875 216.0625 C153.47246826 215.16104248 153.25743652 214.25958496 153.03588867 213.33081055 C146.43237978 186.88183576 132.64781219 161.20840636 112.875 142.3125 C107.875 137.3125 107.875 137.3125 106.40283203 135.75683594 C102.05340376 131.23570272 97.44004394 127.57291453 92.25 124.0625 C91.43023682 123.50747803 90.61047363 122.95245605 89.76586914 122.38061523 C75.13292158 112.67558289 59.848379 104.91538592 42.875 100.3125 C42.15812012 100.11575684 41.44124023 99.91901367 40.70263672 99.71630859 C16.05862677 93.15010437 -9.2688082 92.86271383 -34.125 98.3125 C-35.35347656 98.57804687 -36.58195312 98.84359375 -37.84765625 99.1171875 C-58.33169487 104.06840967 -77.20874908 113.91304009 -94.125 126.3125 C-94.95386719 126.91449219 -95.78273438 127.51648438 -96.63671875 128.13671875 C-122.74257908 148.02895282 -140.61819383 175.93140404 -150.3125 207.0625 C-150.5506543 207.81128418 -150.78880859 208.56006836 -151.03417969 209.33154297 C-156.18018289 226.62803201 -156.56998216 243.77350094 -156.55737305 261.68212891 C-156.56640652 264.29559284 -156.57673758 266.90905256 -156.58825684 269.52250671 C-156.61087667 275.11253091 -156.62289889 280.7024935 -156.62738609 286.29256058 C-156.63388939 294.37449329 -156.65689919 302.4563154 -156.68372939 310.53820316 C-156.72683773 323.65566146 -156.75689513 336.77311504 -156.77856445 349.890625 C-156.79962226 362.62079169 -156.82693891 375.35092003 -156.86254883 388.08105469 C-156.86474765 388.86787949 -156.86694648 389.6547043 -156.86921193 390.46537228 C-156.88028278 394.41328003 -156.89147537 398.36118743 -156.90272844 402.30909467 C-156.99568729 434.97687308 -157.06495245 467.64464039 -157.125 500.3125 C-188.145 500.3125 -219.165 500.3125 -251.125 500.3125 C-251.19130468 466.5794004 -251.24663198 432.84636475 -251.27819599 399.11321947 C-251.2819475 395.11844828 -251.28583053 391.12367723 -251.28979492 387.12890625 C-251.29058185 386.33371694 -251.29136878 385.53852763 -251.29217956 384.71924168 C-251.30518532 371.89291202 -251.32881211 359.06662327 -251.35645839 346.24031776 C-251.38464778 333.05069968 -251.40120465 319.86110282 -251.40726548 306.67145586 C-251.41135408 298.55189249 -251.42420222 290.43244477 -251.4487494 282.31291705 C-251.46477431 276.72294192 -251.46936312 271.13302537 -251.46550413 265.54302901 C-251.46360818 262.33194459 -251.46794154 259.12109867 -251.48261642 255.91004181 C-251.76664505 190.48012422 -229.46430949 130.08937366 -185.24609375 81.65625 C-183.30668497 79.51325688 -181.43170701 77.32905362 -179.5625 75.125 C-176.68398558 71.82395135 -173.5977081 68.96023265 -170.25390625 66.13671875 C-168.81447784 64.90330028 -167.40567879 63.63336433 -166.02734375 62.33203125 C-152.93970264 50.0076488 -137.62179419 40.30311779 -122.125 31.3125 C-121.51688477 30.95349609 -120.90876953 30.59449219 -120.28222656 30.22460938 C-84.11356807 9.02997812 -41.56319354 -0.17062703 0 0 Z " fill="#001868" transform="translate(2511.125,103.6875)"/>
<path d="M0 0 C1.50278755 -0.01058945 1.50278755 -0.01058945 3.03593445 -0.02139282 C44.85517722 -0.24916714 44.85517722 -0.24916714 64.12109375 3.203125 C65.80162842 3.49316406 65.80162842 3.49316406 67.51611328 3.7890625 C127.36294145 14.37477143 186.76063193 41.84266318 230.12109375 85.203125 C230.45109375 60.783125 230.78109375 36.363125 231.12109375 11.203125 C264.12109375 11.203125 297.12109375 11.203125 331.12109375 11.203125 C331.12109375 112.513125 331.12109375 213.823125 331.12109375 318.203125 C298.12109375 318.203125 265.12109375 318.203125 231.12109375 318.203125 C230.41432469 314.66927972 229.9536174 311.66519929 229.76171875 308.125 C227.88032315 277.61486786 221.36525027 245.870339 206.12744141 218.98632812 C205.04555408 217.06927208 204.01005362 215.13103876 202.9765625 213.1875 C193.4030031 195.40803254 180.96389386 179.84616812 167.12109375 165.203125 C166.66250977 164.71054199 166.20392578 164.21795898 165.73144531 163.71044922 C130.38710441 125.90921518 76.33858549 103.1005556 24.91357422 101.0769043 C-27.21340864 99.88618641 -77.69974231 113.31862123 -118.87890625 146.203125 C-119.8225 146.95464844 -120.76609375 147.70617187 -121.73828125 148.48046875 C-127.00994858 152.7400342 -132.05412675 157.13296631 -136.90625 161.8671875 C-138.87890625 163.203125 -138.87890625 163.203125 -140.8107872 162.95548344 C-143.11115363 162.11863602 -144.22356901 161.22876967 -145.94146729 159.50132751 C-146.51912842 158.92779037 -147.09678955 158.35425323 -147.69195557 157.76333618 C-148.31342468 157.13108124 -148.9348938 156.49882629 -149.57519531 155.84741211 C-150.23902222 155.18402328 -150.90284912 154.52063446 -151.58679199 153.83714294 C-153.77989037 151.64195403 -155.96217083 149.4363289 -158.14453125 147.23046875 C-159.66273642 145.7066686 -161.18160515 144.18352931 -162.70111084 142.661026 C-166.6993294 138.6513511 -170.68845736 134.63274874 -174.67578125 130.61224365 C-178.74586726 126.51147402 -182.82445518 122.41917995 -186.90234375 118.32617188 C-194.9028921 110.29344541 -202.89386585 102.25126544 -210.87890625 94.203125 C-206.45780281 84.89100133 -196.7657922 78.48453798 -188.87890625 72.203125 C-187.70843712 71.24364745 -186.53922291 70.28263751 -185.37109375 69.3203125 C-176.88577889 62.36759742 -168.15382124 56.05902276 -158.87890625 50.203125 C-158.01458984 49.65325928 -158.01458984 49.65325928 -157.1328125 49.09228516 C-110.79577801 19.81642068 -55.22222308 0.26061299 0 0 Z " fill="#AA82F2" transform="translate(305.87890625,-0.203125)"/>
<path d="M0 0 C33 0 66 0 100 0 C100.99 10.56 101.98 21.12 103 32 C110.6966091 76.5950586 129.12447092 115.8986934 160 149 C162.19233671 151.49043413 164.38304611 153.98215998 166.56640625 156.48046875 C183.75606584 174.27714681 205.71166443 187.6253035 228 198 C229.13566406 198.53238281 230.27132812 199.06476563 231.44140625 199.61328125 C282.93737484 222.70591143 342.7701334 222.67995295 395.31152344 203.10058594 C402.81347734 200.19368174 410.0234503 196.85943887 417.09667969 193.02978516 C419.04746877 191.97431718 421.01146519 190.946507 422.9765625 189.91796875 C438.62710572 181.57493909 454.65133543 170.29890253 466.61328125 157.12109375 C467.40089844 156.42113281 468.18851562 155.72117187 469 155 C472.21147458 155.32222788 473.86535965 156.49235979 476.1005249 158.73976135 C476.68660019 159.32171265 477.27267548 159.90366394 477.87651062 160.50325012 C478.50733047 161.1448558 479.13815033 161.78646149 479.78808594 162.44750977 C480.46166641 163.12065216 481.13524689 163.79379456 481.82923889 164.48733521 C484.0548017 166.71498871 486.2695491 168.95308157 488.484375 171.19140625 C490.02500046 172.73762664 491.56628942 174.28318619 493.10821533 175.82810974 C497.16561686 179.89696807 501.21392902 183.97475502 505.26043701 188.05444336 C509.39084676 192.21553574 513.52975734 196.36815325 517.66796875 200.52148438 C525.78700576 208.6727003 533.89646917 216.83337049 542 225 C541.04725976 226.12194989 540.09303327 227.24263779 539.13818359 228.36279297 C538.60695892 228.98701141 538.07573425 229.61122986 537.52841187 230.25436401 C490.91407827 283.49371661 409.5846963 312.94553356 341 318 C337.446151 318.14467789 333.89639212 318.18593715 330.33984375 318.203125 C329.36022675 318.21018463 328.38060974 318.21724426 327.37130737 318.22451782 C286.30161028 318.45325386 286.30161028 318.45325386 267 315 C265.29336182 314.70198486 265.29336182 314.70198486 263.55224609 314.39794922 C214.44454119 305.58983609 167.87095536 286.14863993 128 256 C127.4220166 255.56478027 126.8440332 255.12956055 126.24853516 254.68115234 C119.09286075 249.26125068 112.25850038 243.60435652 105.72998047 237.43969727 C103.08454556 234.9197238 103.08454556 234.9197238 100 233 C100 257.42 100 281.84 100 307 C67 307 34 307 0 307 C0 205.69 0 104.38 0 0 Z " fill="#2DB7FE" transform="translate(0,298)"/>
<path d="M0 0 C31.02 0 62.04 0 94 0 C94 149.82 94 299.64 94 454 C62.98 454 31.96 454 0 454 C0 304.18 0 154.36 0 0 Z " fill="#001868" transform="translate(2053,150)"/>
<path d="M0 0 C30.69 0 61.38 0 93 0 C93 149.82 93 299.64 93 454 C62.31 454 31.62 454 0 454 C0 304.18 0 154.36 0 0 Z " fill="#001869" transform="translate(3488,150)"/>
<path d="M0 0 C10.25376094 7.73558209 16.76276161 17.2976819 19.75 29.8125 C20.0360597 32.59000349 20.08426345 35.33423156 20.0625 38.125 C20.05512817 39.24648437 20.05512817 39.24648437 20.04760742 40.390625 C19.7886415 52.65100141 14.97364427 62.96707761 6.69140625 71.96484375 C-2.98605295 81.17498098 -15.00527861 85.20254377 -28.1875 85.0234375 C-38.09454861 84.34106425 -46.18205777 81.55428371 -54.25 75.8125 C-55.301875 75.07 -56.35375 74.3275 -57.4375 73.5625 C-67.21112913 64.00606263 -72.03625939 52.25191285 -72.5 38.6875 C-72.34348176 25.88778648 -67.81189442 15.02539502 -59.19140625 5.66015625 C-43.19259786 -9.56607387 -18.44891587 -12.03798759 0 0 Z " fill="#001868" transform="translate(3560.25,18.1875)"/>
<path d="M0 0 C10.24055387 7.72561849 16.78865084 17.30177822 19.75 29.8125 C21.21095031 44.66549485 19.04220457 56.82538111 9.75 68.8125 C0.96502658 78.46549464 -9.80418239 83.91531321 -22.796875 85.03125 C-34.5382056 85.43846378 -44.66885174 82.56612894 -54.25 75.8125 C-55.1575 75.19375 -56.065 74.575 -57 73.9375 C-66.98571282 64.50654901 -72.13307779 52.51924148 -72.625 38.8125 C-72.21666267 28.33184177 -69.37420441 19.30833259 -63.25 10.8125 C-62.7859375 10.16539063 -62.321875 9.51828125 -61.84375 8.8515625 C-47.28470314 -9.67078046 -19.11043965 -12.46963437 0 0 Z " fill="#001868" transform="translate(2125.25,18.1875)"/>
</svg>
